<svg width="103" height="14" viewBox="0 0 103 14" fill="none" xmlns="http://www.w3.org/2000/svg">
<g clip-path="url(#clip0_3755_14)">
<path d="M12.452 -0.000356873H5.46432V4.434H11.4405C12.8529 4.434 13.6546 5.57497 13.6546 6.99964C13.6546 8.42431 12.8529 9.55295 11.4405 9.55295H5.46432V4.434L0 0.0428149V13.9996H12.452C16.3066 14.049 19.1498 10.7988 19.1313 6.99964C19.1498 3.17585 16.3066 -0.0496961 12.452 -0.000356873Z" fill="white"/>
<path d="M32.052 0H25.5639L18.0581 14H24.2009L25.3048 11.6009H32.311L33.415 14H39.5577L32.052 0ZM26.8837 8.19031L28.8141 4.04581L30.7322 8.19031H26.8837Z" fill="white"/>
<path d="M52.4476 9.33807e-06H39.9956V14H40.1498L45.4599 9.55331V4.43437H51.4361C52.8485 4.43437 53.6502 5.57534 53.6502 7.00001C53.6502 8.42468 52.8485 9.55331 51.4361 9.55331H45.7251L45.5648 14H52.4476C56.296 14.0493 59.1577 10.7991 59.1207 7.00001C59.1577 3.17622 56.296 -0.0493299 52.4476 9.33807e-06Z" fill="white"/>
<path d="M66.4414 0V4.44053H71.9057L87.0529 4.43436V0H66.4414ZM66.4414 6.14273V14H71.9057V10.2379H79.8V6.14273H66.4414Z" fill="#34C363"/>
<path d="M81.5577 6.1427V14H87.0159V6.1427H81.5577Z" fill="#34C363"/>
<path d="M88.7365 0V4.43436H92.8625V14H98.3269V4.43436H102.459V0H88.7365Z" fill="#34C363"/>
<path d="M45.7372 9.30658L45.7249 9.55328H45.4599V9.54094L45.7372 9.30658Z" fill="#F4F4F4"/>
</g>
<defs>
<clipPath id="clip0_3755_14">
<rect width="102.459" height="14" fill="white"/>
</clipPath>
</defs>
</svg>
